<?xml version="1.0" encoding="UTF-8"?>
<svg id="Layer_1" data-name="Layer 1" xmlns="http://www.w3.org/2000/svg" viewBox="0 0 709.26 144.81">
  <defs>
    <style>
      .cls-1 {
        fill: #fff;
      }
    </style>
  </defs>
  <path class="cls-1" d="M709.26,0v144.81H0V0h709.26ZM19.52,5.62v133.28h58.43c24.7-1.23,41.39-15.71,50.05-38.06.14-.37-.14-.78.51-.65,3.36,23.11,19.99,38.69,43.19,41.08,20.79,2.14,41.48-5.57,51.18-24.81,1.28-2.53,1.96-5.42,3.08-7.85.14-.29.17-.69.6-.73,4.54,17.6,19.17,29.7,36.92,32.71,22.18,3.76,45.16-3.34,55.62-24.32l2.99-7.2v29.85h26.32v-64.57c0-7.19,5.96-13.96,13.17-14.62,13.26-1.22,17.53,4.11,18.2,16.68v62.52s26.02,0,26.02,0v-58.97c.2-25.79,30.72-30.14,32.25-1.18v60.15s25.42,0,25.42,0v-23.64l3.72,7.07c16.25,26.15,64.93,26.09,80.03-1.55l3.2-6.11v24.23h26.03v-53.36c.42-5.4,1.51-11.03,5.17-15.21,4.42-5.04,11.14-6.57,17.6-6.79-.51,3.82-.11,8.13,1.03,11.82,4.26,13.73,20.2,18.61,32.62,22.08,6.26,1.75,21.06,4.1,25.22,8.49,4.95,5.23,1.51,11.82-4.45,14.19-10.33,4.12-31.23,1.78-31.35-12.85h-26.92c.66,21.06,18.15,31.27,37.16,33.65,25.65,3.21,56.16-4.01,53.64-35.86-2.03-25.6-38.11-23.45-55.71-32.11-4.35-2.14-7.76-5.79-5.38-10.91,2.73-5.87,16.39-5.57,21.77-4.58,7.21,1.33,10.46,5.46,11.52,12.58h25.14c-.66-12.74-6.19-23.22-18.14-28.42-13.71-5.96-39.31-5.77-52.56,1.37l-5.32,3.4v-8.87c-9.96-.43-19.3.22-26.92,7.24l-5.62,6.65v-11.23h-24.55v29.85l-4.98-12.02c-9.62-18.32-31.23-23.27-50.39-19.51-14.91,2.92-26.29,12.17-32.03,26.21-3.08-19.45-20.96-29.74-39.84-26.81-9.27,1.44-15.88,6.82-20.2,14.98-5.45-8.45-12.28-14.58-22.78-15.36s-22.08.97-29.12,9.91l-4.45,6.64v-13.89h-24.55v29.55l-2.61-6.41c-10.45-22.17-35.74-29.56-58.62-24.48-16.6,3.68-29.93,15.52-34.31,32.07-.42-.03-.46-.43-.6-.73-3.41-7.42-4.52-12.15-10.48-18.49-18.35-19.5-56.71-18.99-74.84.59-3.37,3.64-4.92,7.17-7.47,11.15-.19.29.03.53-.66.38-.88-18.36-9.37-36.72-24.63-47.35-10.06-7-21.85-10.25-34.06-10.88H19.52Z"/>
  <path d="M19.52,5.62h54.29c12.21.62,24,3.87,34.06,10.87,15.27,10.63,23.75,28.99,24.63,47.35.69.15.47-.09.66-.38,2.55-3.98,4.1-7.51,7.47-11.15,18.13-19.58,56.48-20.09,74.84-.59,5.97,6.34,7.07,11.07,10.48,18.49.13.29.18.69.6.73,4.38-16.55,17.71-28.38,34.31-32.07,22.88-5.08,48.17,2.31,58.62,24.48l2.61,6.41v-29.55h24.55v13.89l4.45-6.64c7.04-8.94,18.31-10.7,29.12-9.91s17.33,6.91,22.78,15.36c4.32-8.16,10.93-13.54,20.2-14.98,18.88-2.94,36.76,7.35,39.84,26.81,5.74-14.04,17.12-23.3,32.03-26.21,19.16-3.75,40.77,1.19,50.39,19.51l4.98,12.02v-29.85h24.55v11.23l5.62-6.65c7.62-7.02,16.96-7.67,26.92-7.24v8.87l5.32-3.4c13.24-7.14,38.85-7.34,52.56-1.37,11.95,5.2,17.48,15.68,18.14,28.42h-25.14c-1.06-7.11-4.31-11.25-11.52-12.58-5.38-.99-19.04-1.29-21.77,4.58-2.38,5.12,1.03,8.77,5.38,10.91,17.59,8.66,53.67,6.51,55.71,32.11,2.53,31.85-27.99,39.07-53.64,35.86-19.01-2.38-36.5-12.59-37.16-33.65h26.92c.11,14.63,21.01,16.97,31.35,12.85,5.96-2.38,9.4-8.96,4.45-14.19-4.16-4.4-18.96-6.75-25.22-8.49-12.42-3.47-28.36-8.35-32.62-22.08-1.15-3.69-1.54-8-1.03-11.82-6.46.23-13.18,1.75-17.6,6.79-3.67,4.18-4.76,9.81-5.19,15.21v53.36s-26.01,0-26.01,0v-24.23l-3.2,6.11c-15.11,27.64-63.78,27.7-80.03,1.55l-3.72-7.07v23.64h-25.44v-60.15c-1.51-28.96-32.04-24.61-32.25,1.18v58.97s-26.01,0-26.01,0v-62.52c-.65-12.57-4.92-17.9-18.19-16.68-7.21.66-13.17,7.43-13.17,14.62v64.57h-26.32v-29.85l-2.99,7.2c-10.47,20.98-33.45,28.09-55.62,24.32-17.75-3.01-32.38-15.11-36.92-32.71-.43.04-.46.44-.6.73-1.13,2.43-1.8,5.32-3.08,7.85-9.7,19.24-30.39,26.95-51.18,24.81-23.2-2.38-39.83-17.96-43.19-41.08-.66-.13-.37.28-.51.65-8.65,22.35-25.34,36.83-50.05,38.08H19.52V5.62ZM46.73,116.14c17.9-.85,39.49,4.51,50.7-13.32,7.56-12.02,8.18-33.64,5.7-47.31-3.67-20.16-15.51-26.1-34.94-26.85h-21.46v87.49ZM526.47,79.79c-.36-3.59-.83-6.92-2.31-10.25-4.9-11-18.86-14.79-28.83-8.02-5.72,3.89-8.91,11.49-9.08,18.27h40.22ZM174.14,59.78c-18.19,1.93-20.85,22.26-19.12,36.97,1.57,13.34,8.53,22.77,22.87,22.95,20.83.26,25.38-16.92,24.43-34.46-.95-17.54-9.96-27.4-28.18-25.47ZM270.27,59.78c-18.19,1.93-20.85,22.26-19.12,36.97,1.57,13.34,8.53,22.77,22.87,22.95,20.83.26,25.38-16.92,24.43-34.46-.95-17.54-9.96-27.4-28.18-25.47ZM550.43,96.34h-65.07c.34,11.09,6.24,22.14,17.97,24.16,8.34,1.43,19.26-1.86,21.66-10.86h25.44v-13.3Z"/>
  <path class="cls-1" d="M46.73,116.14V28.67h21.46c19.43.74,31.28,6.67,34.94,26.84,2.49,13.67,1.86,35.29-5.7,47.31-11.21,17.83-32.8,12.47-50.7,13.32Z"/>
  <path class="cls-1" d="M174.14,59.78c18.22-1.93,27.22,7.93,28.18,25.47.95,17.54-3.6,34.71-24.43,34.46-14.34-.18-21.3-9.62-22.87-22.95-1.73-14.71.93-35.04,19.12-36.97Z"/>
  <path class="cls-1" d="M270.27,59.78c18.22-1.93,27.22,7.93,28.18,25.47.95,17.54-3.6,34.71-24.43,34.46-14.34-.18-21.3-9.62-22.87-22.95-1.73-14.71.93-35.04,19.12-36.97Z"/>
  <path class="cls-1" d="M550.43,96.34v13.3h-25.44c-2.4,9-13.32,12.29-21.66,10.86-11.73-2.02-17.63-13.06-17.97-24.16h65.07Z"/>
  <path class="cls-1" d="M526.47,79.79h-40.22c.17-6.78,3.35-14.38,9.08-18.27,9.98-6.77,23.93-2.98,28.83,8.02,1.48,3.33,1.95,6.65,2.31,10.25Z"/>
</svg>